<?xml version="1.0" encoding="UTF-8"?>
<svg width="16px" height="15px" viewBox="0 0 16 15" version="1.1" xmlns="http://www.w3.org/2000/svg" xmlns:xlink="http://www.w3.org/1999/xlink">
    <!-- Generator: Sketch 50.2 (55047) - http://www.bohemiancoding.com/sketch -->
    <title>屏蔽</title>
    <desc>Created with Sketch.</desc>
    <defs></defs>
    <g id="Symbols" stroke="none" stroke-width="1" fill="none" fill-rule="evenodd">
        <g id="信息3（违规）" transform="translate(-1027.000000, -17.000000)">
            <g id="信息1">
                <g>
                    <g id="屏蔽" transform="translate(1027.000000, 16.500000)">
                        <rect id="Rectangle-9" fill="#333333" opacity="0" x="0" y="0" width="16" height="16"></rect>
                        <path d="M14.0426512,11.2142241 L10.996114,8.16768693 C10.9986722,8.11222822 10.9999666,8.05640497 10.9999666,8.00025079 C10.9999666,6.19230453 9.65815317,4.72738854 7.99999908,4.72738854 C7.85976383,4.72738854 7.72176901,4.7378905 7.58664055,4.75821343 L5.32143778,2.49301065 C6.18526364,2.16673473 7.08114577,2.0017799 8.00194848,2 L8.00194848,2.01171724 C9.64842442,2.01490739 11.2206749,2.54334693 12.6679414,3.58208841 C12.7519139,3.64069467 14.7714294,5.08959979 15.8554034,7.34717511 C15.8632011,7.35780891 15.9999002,7.63163923 15.9979691,8.00344094 L15.9999186,8.00344094 C16.0038358,8.3784729 15.8651506,8.65334655 15.8573528,8.66506379 C15.3575367,9.70552343 14.6588153,10.5742866 14.0426512,11.2142241 Z M10.6791963,13.5076234 C9.81499272,13.8338546 8.91868186,13.9988136 7.99804964,14 L7.99804964,13.9893461 C6.34964267,13.9850926 4.77934159,13.4587999 3.33012572,12.4184332 C3.24810262,12.359827 1.22663765,10.9109219 0.144613117,8.6533666 C0.136797016,8.64269268 -0.0038192733,8.36675566 7.95843964e-05,7.99174375 L0.00202900426,7.99174375 C7.95664245e-05,7.61994204 0.138746436,7.34719517 0.146562537,7.33547793 C0.644366276,6.29545757 1.34255624,5.42698993 1.95870326,4.78713038 L5.00387646,7.83230359 C5.00129907,7.88793041 4.99999478,7.94392412 4.99999478,8.00025079 C4.99999478,9.80821711 6.34375762,11.2731331 7.99999908,11.2731331 C8.14043114,11.2731331 8.27859418,11.2626257 8.41386526,11.2422924 L10.6791963,13.5076234 Z M1.91636906,1.10570888 L14.6442911,13.8336309 L13.5836309,14.8942911 L0.855708883,2.16636906 L1.91636906,1.10570888 Z" id="Combined-Shape" fill="#666666" fill-rule="nonzero"></path>
                    </g>
                </g>
            </g>
        </g>
    </g>
</svg>