<?xml version="1.0" encoding="UTF-8"?>
<svg width="16px" height="12px" viewBox="0 0 16 12" version="1.1" xmlns="http://www.w3.org/2000/svg" xmlns:xlink="http://www.w3.org/1999/xlink">
    <!-- Generator: Sketch 50.2 (55047) - http://www.bohemiancoding.com/sketch -->
    <title>可见</title>
    <desc>Created with Sketch.</desc>
    <defs></defs>
    <g id="Symbols" stroke="none" stroke-width="1" fill="none" fill-rule="evenodd">
        <g id="信息3（选中）" transform="translate(-1027.000000, -19.000000)">
            <g id="信息1">
                <g>
                    <g id="可见" transform="translate(1027.000000, 17.000000)">
                        <rect id="Rectangle-9" fill="#D8D8D8" opacity="0" x="0" y="0" width="16" height="16"></rect>
                        <path d="M15.9979691,8.00344094 C15.9999002,7.63163923 15.8632011,7.35780891 15.8554034,7.34717511 C14.7714294,5.08959979 12.7519139,3.64069467 12.6679414,3.58208841 C11.2206749,2.54334693 9.64842442,2.01490739 8.00194848,2.01171724 L8.00194848,2 C6.3515737,2.00319015 4.78125422,2.53056631 3.33207514,3.5714546 C3.25003364,3.6300408 1.22663763,5.07896598 0.146562537,7.33547793 C0.138746436,7.34719517 7.95664245e-05,7.61994204 0.00202900426,7.99174375 L7.95843964e-05,7.99174375 C-0.0038192733,8.36675566 0.136797016,8.64269268 0.144613117,8.6533666 C1.22663765,10.9109219 3.24810262,12.359827 3.33012572,12.4184332 C4.77934159,13.4587999 6.34964267,13.9850926 7.99804964,13.9893461 L7.99804964,14 C9.6484428,13.9978732 11.2206749,13.4694337 12.6698908,12.4290871 C12.7538633,12.3704809 14.7733789,10.9215557 15.8573528,8.66506379 C15.8651506,8.65334655 16.0038358,8.3784729 15.9999186,8.00344094 L15.9979691,8.00344094 Z M7.99999908,11.2731331 C6.34375762,11.2731331 4.99999478,9.80821711 4.99999478,8.00025079 C4.99999478,6.19230453 6.34373924,4.72738854 7.99999908,4.72738854 C9.65815317,4.72738854 10.9999666,6.19230453 10.9999666,8.00025079 C10.9999666,9.80821711 9.65815317,11.2731331 7.99999908,11.2731331 Z" id="Shape" fill="#666666" fill-rule="nonzero"></path>
                    </g>
                </g>
            </g>
        </g>
    </g>
</svg>