<?xml version="1.0" encoding="UTF-8"?>
<svg width="16px" height="16px" viewBox="0 0 16 16" version="1.1" xmlns="http://www.w3.org/2000/svg" xmlns:xlink="http://www.w3.org/1999/xlink">
    <!-- Generator: Sketch 50.2 (55047) - http://www.bohemiancoding.com/sketch -->
    <title>加载</title>
    <desc>Created with Sketch.</desc>
    <defs></defs>
    <g id="Page-1" stroke="none" stroke-width="1" fill="none" fill-rule="evenodd">
        <g id="4" transform="translate(-1187.000000, -861.000000)">
            <g id="2" transform="translate(1093.000000, 117.000000)">
                <g id="加载中" transform="translate(0.000000, 737.000000)">
                    <g id="加载" transform="translate(94.000000, 6.000000)">
                        <g transform="translate(0.000000, 1.000000)">
                            <rect id="Rectangle-13" fill="#D8D8D8" opacity="0" x="0" y="0" width="16" height="16"></rect>
                            <path d="M11.6575636,14.5340383 C11.3831704,14.6935509 11.0357083,14.5991971 10.8805183,14.3251094 C10.7129562,14.0555173 10.8108034,13.7039295 11.0806962,13.5444339 C11.3640733,13.3860665 11.707052,13.4837876 11.8667254,13.7533627 C12.0264159,14.0229549 11.9364574,14.3824055 11.6575636,14.5340383 Z M7.90952502,15.5438808 C7.59801555,15.5438808 7.33714092,15.2900143 7.33714092,14.9721341 L7.33714092,14.5711303 C7.33714092,14.252122 7.59914495,13.9982554 7.90952502,13.9982554 C8.22887184,13.9982554 8.49089299,14.2521049 8.49089299,14.5711303 L8.49089299,14.9721341 C8.49089299,15.2832796 8.23337234,15.5438808 7.90952502,15.5438808 Z M4.16932376,14.5385337 C3.89157655,14.3823884 3.79259992,14.0319459 3.95680804,13.7533628 L4.38298599,13.008634 C4.54717701,12.7345463 4.89915669,12.6401925 5.176921,12.7963378 C5.44681373,12.9558334 5.54575615,13.3119337 5.38158224,13.5815088 L4.95537008,14.3262376 C4.79230846,14.608171 4.44034589,14.6980464 4.16932376,14.5385337 Z M1.42660645,11.7999988 C1.26354483,11.5304067 1.35687446,11.1743405 1.63126769,11.0148449 L2.77716528,10.3521117 C3.05155851,10.2004619 3.40690928,10.2858418 3.56321161,10.5643908 C3.71838453,10.833983 3.62392548,11.1900662 3.35067878,11.3495618 L2.21263567,12.012295 C1.93488846,12.1673122 1.5784254,12.0740694 1.42660645,11.7999988 Z M0.42126801,8.05946712 C0.42126801,7.74047592 0.67428816,7.48324203 0.993652107,7.48324203 L2.77827757,7.48324203 C3.09764152,7.48324203 3.35066167,7.74047592 3.35066167,8.05498873 C3.35066167,8.37397994 3.09764152,8.63121382 2.77827757,8.63121382 L0.993652107,8.63121382 C0.67428816,8.63121382 0.42126801,8.37397994 0.42126801,8.05946712 Z M1.42771876,4.31447411 C1.57953771,4.03701911 1.93487137,3.94264816 2.21376508,4.10216087 L4.15243408,5.22656129 C4.42682731,5.38270664 4.51678585,5.73314914 4.36496691,6.00386946 C4.20190528,6.28132446 3.84994271,6.37119991 3.58004998,6.21616561 L1.63238,5.09514963 C1.35350339,4.94013241 1.26354485,4.5885276 1.42771876,4.31447411 Z M5.30734977,4.69862416 C5.47152368,4.97271183 5.82352047,5.07041592 6.09676719,4.90755298 C6.37116042,4.75255285 6.46111896,4.39645255 6.30144553,4.12238199 L4.9463862,1.78485093 C4.79119617,1.5141477 4.43919938,1.41642651 4.16932376,1.57592211 C3.89044716,1.73540064 3.80048861,2.08698836 3.95679094,2.35658054 L5.30734977,4.69862416 Z M7.90952502,0.570557964 C8.22887184,0.570557964 8.49089299,0.828919985 8.49089299,1.14681724 L8.49089299,3.84492699 C8.49089299,4.1639353 8.23337234,4.42118627 7.90952502,4.42564756 C7.59801555,4.42564756 7.33714092,4.17290917 7.33714092,3.84492699 L7.33714092,1.14681724 C7.33714092,0.835654668 7.59914495,0.570557964 7.90952502,0.570557964 Z M11.6586931,1.57253769 C11.9364574,1.7275549 12.0354169,2.07915971 11.8712259,2.35770868 L10.5172788,4.6997523 C10.3643476,4.97271183 10.0044963,5.070433 9.73124963,4.91204845 C9.4568564,4.75255285 9.36689786,4.39645255 9.52207079,4.12238197 L10.8726638,1.78483384 C11.0368378,1.50739593 11.3843341,1.41640942 11.6586931,1.57253769 Z M11.2741147,5.45460017 C10.9997215,5.6096003 10.9052625,5.96118803 11.0615819,6.23975408 C11.2246435,6.50934625 11.5766232,6.59920462 11.8476282,6.44869999 L14.1967833,5.09626068 C14.4666761,4.94124347 14.5656185,4.58967283 14.4014446,4.31558516 C14.2451251,4.03700202 13.8920332,3.93816978 13.6232698,4.10216087 L11.2741147,5.45460017 Z M15.4022483,8.05945003 C15.4022483,8.37396285 15.1526163,8.63119673 14.8298642,8.63119673 L12.1253754,8.63119673 C11.8138831,8.63119673 11.5518619,8.37396285 11.5518619,8.05497164 C11.5518619,7.74045883 11.8138831,7.48322495 12.1253754,7.48322495 L14.8298642,7.48322495 C15.1526163,7.48322495 15.4067659,7.74045883 15.4022483,8.05945003 Z" id="Shape" fill="#4D74EB" fill-rule="nonzero"></path>
                        </g>
                    </g>
                </g>
            </g>
        </g>
    </g>
</svg>