<?xml version="1.0" encoding="UTF-8"?>
<svg width="12px" height="13px" viewBox="0 0 12 13" version="1.1" xmlns="http://www.w3.org/2000/svg" xmlns:xlink="http://www.w3.org/1999/xlink">
    <!-- Generator: Sketch 50.2 (55047) - http://www.bohemiancoding.com/sketch -->
    <title>监控</title>
    <desc>Created with Sketch.</desc>
    <defs></defs>
    <g id="Symbols" stroke="none" stroke-width="1" fill="none" fill-rule="evenodd">
        <g id="监控字段" transform="translate(-12.000000, -6.000000)">
            <g id="监控">
                <g transform="translate(10.000000, 5.000000)">
                    <rect id="Rectangle-4" fill="#D8D8D8" opacity="0" x="0" y="0" width="16" height="16"></rect>
                    <path d="M10.0330815,6.10912675 L7.24852812,8.89368012 L6.32928934,7.97444134 L6.36287816,7.94085251 L5.38076117,6.95873552 L3.3,6.95873552 L3.3,10.3587356 L12.7,10.3587356 L12.7,6.10912675 L10.0330815,6.10912675 Z M9.48996006,4.91257238 L9.48996006,4.8091268 L12.7,4.8091268 L12.7,2.95873557 L3.3,2.95873557 L3.3,5.65873557 L6,5.65873557 L6,5.73949678 L7.28211695,7.02161373 L9.44055918,4.8631715 L9.48996006,4.91257238 Z M2,1.65873557 L14,1.65873557 L14,11.6587356 L2,11.6587356 L2,1.65873557 Z M5,12.6587356 L11,12.6587356 L11,13.9587355 L5,13.9587355 L5,12.6587356 Z" id="Combined-Shape" fill="#3E71F7"></path>
                </g>
            </g>
        </g>
    </g>
</svg>