<?xml version="1.0" encoding="UTF-8"?>
<svg width="12px" height="12px" viewBox="0 0 12 12" version="1.1" xmlns="http://www.w3.org/2000/svg" xmlns:xlink="http://www.w3.org/1999/xlink">
    <!-- Generator: Sketch 50.2 (55047) - http://www.bohemiancoding.com/sketch -->
    <title>刷新-5</title>
    <desc>Created with Sketch.</desc>
    <defs></defs>
    <g id="Symbols" stroke="none" stroke-width="1" fill="none" fill-rule="evenodd">
        <g id="刷新" transform="translate(-12.000000, -7.000000)">
            <g id="刷新-5">
                <g transform="translate(10.000000, 5.000000)">
                    <rect id="Rectangle-4" stroke="#979797" fill="#D8D8D8" opacity="0" x="0.5" y="0.5" width="15" height="15"></rect>
                    <path d="M12.2366646,3.76273741 C11.1507663,2.67560818 9.65502908,2.00001598 7.99563506,2.00001598 C4.68157238,2.00001598 2,4.68633163 2,8.00001598 C2,11.3136844 4.68157238,14 7.99563506,14 C10.7912242,14 13.1307623,12.0871292 13.8001423,9.49997604 L12.2366646,9.49997604 C11.6162359,11.2466123 9.95551242,12.4999601 7.99565109,12.4999601 C5.50858637,12.4999601 3.49238942,10.4852114 3.49238942,8.00001598 C3.49238942,5.51474073 5.50860238,3.500008 7.99565109,3.500008 C9.23987223,3.500008 10.3539624,4.01609048 11.1668805,4.83109796 L9.00317292,7.00971711 L14,7.00971711 L14,2 L12.2366646,3.76273741 Z" id="Shape" fill="#3E71F7" fill-rule="nonzero"></path>
                </g>
            </g>
        </g>
    </g>
</svg>