<?xml version="1.0" encoding="UTF-8"?>
<svg width="14px" height="14px" viewBox="0 0 14 14" version="1.1" xmlns="http://www.w3.org/2000/svg" xmlns:xlink="http://www.w3.org/1999/xlink">
    <!-- Generator: Sketch 50.2 (55047) - http://www.bohemiancoding.com/sketch -->
    <title>搜索</title>
    <desc>Created with Sketch.</desc>
    <defs></defs>
    <g id="搜索" stroke="none" stroke-width="1" fill="none" fill-rule="evenodd">
        <g id="Unknown">
            <rect id="Rectangle-12" fill="#D8D8D8" opacity="0" x="0" y="0" width="14" height="14"></rect>
            <path d="M9.94345086,9.43880498 L12.8763001,12.3716543 L11.81564,13.4323144 L8.79772421,10.4143987 C8.04261359,10.8808343 7.1527403,11.15 6.2,11.15 C3.46619049,11.15 1.25,8.93380951 1.25,6.2 C1.25,3.46619049 3.46619049,1.25 6.2,1.25 C8.93380951,1.25 11.15,3.46619049 11.15,6.2 C11.15,7.43847123 10.695177,8.57071285 9.94345086,9.43880498 Z M6.2,9.65 C8.10538239,9.65 9.65,8.10538239 9.65,6.2 C9.65,4.29461761 8.10538239,2.75 6.2,2.75 C4.29461761,2.75 2.75,4.29461761 2.75,6.2 C2.75,8.10538239 4.29461761,9.65 6.2,9.65 Z" id="Combined-Shape" fill="#333333" fill-rule="nonzero"></path>
        </g>
    </g>
</svg>