<?xml version="1.0" encoding="UTF-8"?>
<svg width="14px" height="14px" viewBox="0 0 14 14" version="1.1" xmlns="http://www.w3.org/2000/svg" xmlns:xlink="http://www.w3.org/1999/xlink">
    <!-- Generator: Sketch 50.2 (55047) - http://www.bohemiancoding.com/sketch -->
    <title>时间</title>
    <desc>Created with Sketch.</desc>
    <defs></defs>
    <g id="时间" stroke="none" stroke-width="1" fill="none" fill-rule="evenodd">
        <g>
            <rect id="Rectangle-3" fill="#D8D8D8" opacity="0" x="0" y="0" width="14" height="14"></rect>
            <path d="M7.57257797,6.88342162 L9.12870789,6.88342162 L9.12870789,7.99453273 L7.57257797,7.99453273 L7.57257797,8 L6.46146686,8 L6.46146686,4 L7.57257797,4 L7.57257797,6.88342162 Z M7,12.75 C3.82436269,12.75 1.25,10.1756373 1.25,7 C1.25,3.82436269 3.82436269,1.25 7,1.25 C10.1756373,1.25 12.75,3.82436269 12.75,7 C12.75,10.1756373 10.1756373,12.75 7,12.75 Z M7,11.25 C9.34721019,11.25 11.25,9.34721019 11.25,7 C11.25,4.65278981 9.34721019,2.75 7,2.75 C4.65278981,2.75 2.75,4.65278981 2.75,7 C2.75,9.34721019 4.65278981,11.25 7,11.25 Z" id="Combined-Shape" fill="#333333" fill-rule="nonzero"></path>
        </g>
    </g>
</svg>